<?xml version="1.0" standalone="no"?>
<!DOCTYPE svg PUBLIC "-//W3C//DTD SVG 20010904//EN"
 "http://www.w3.org/TR/2001/REC-SVG-20010904/DTD/svg10.dtd">
<svg version="1.0" xmlns="http://www.w3.org/2000/svg"
 width="192.000000pt" height="192.000000pt" viewBox="0 0 192.000000 192.000000"
 preserveAspectRatio="xMidYMid meet">
<metadata>
Created by potrace 1.11, written by Peter Selinger 2001-2013
</metadata>
<g transform="translate(0.000000,192.000000) scale(0.100000,-0.100000)"
fill="#000000" stroke="none">
<path d="M868 1835 c-1 -1 -23 -5 -48 -8 -109 -14 -263 -77 -369 -150 -107
-73 -233 -224 -289 -347 -51 -111 -70 -188 -78 -315 -3 -49 -7 -96 -9 -102 -3
-7 1 -13 7 -13 7 0 6 -5 -2 -15 -8 -9 -8 -15 -2 -15 6 0 11 -8 11 -17 -1 -29
8 -87 16 -105 4 -9 4 -22 0 -28 -3 -5 -2 -10 3 -10 6 0 13 -12 17 -27 9 -38
61 -156 78 -178 4 -5 31 -41 59 -80 29 -38 63 -78 75 -88 13 -10 20 -23 17
-29 -4 -7 -2 -8 4 -4 7 4 12 2 12 -3 0 -6 7 -11 16 -11 8 0 13 -4 10 -9 -3 -4
6 -13 20 -19 13 -7 30 -16 37 -22 29 -24 86 -57 129 -75 27 -11 48 -23 48 -27
0 -5 14 -8 31 -8 16 0 28 -4 25 -9 -3 -5 0 -9 7 -8 33 1 58 -4 54 -10 -3 -5
20 -9 51 -11 31 -2 60 -9 64 -15 6 -9 8 -9 8 0 0 6 8 10 18 8 9 -2 25 -4 35
-4 12 -1 16 -5 11 -13 -6 -10 -4 -10 7 -2 8 6 21 11 29 12 8 0 39 2 68 5 36 4
52 2 52 -6 0 -7 4 -6 10 3 5 8 20 15 32 15 13 1 28 3 33 7 27 16 84 26 89 15
2 -7 5 -3 5 7 1 11 3 17 7 14 3 -3 26 5 52 17 34 16 51 20 60 13 9 -8 11 -7 7
3 -3 9 14 26 45 46 28 17 48 26 44 20 -3 -7 5 1 18 17 14 17 30 26 36 22 8 -5
10 -1 5 10 -5 13 -2 15 18 9 15 -4 19 -3 11 3 -10 7 -9 12 5 25 10 8 23 16 28
16 6 1 10 4 10 9 0 4 16 28 36 52 19 25 46 61 59 80 13 19 28 38 33 41 5 3 8
9 7 13 -4 16 44 115 53 109 6 -3 7 -1 3 5 -7 11 12 91 24 102 3 3 5 16 6 30 1
14 4 50 8 80 9 65 11 154 4 166 -3 5 -6 26 -7 47 -1 22 -8 64 -16 95 -103 395
-426 654 -832 667 -61 2 -113 2 -115 0z"/>
<path d="M1331 147 c2 -1 13 -9 24 -17 19 -14 19 -14 6 3 -7 9 -18 17 -24 17
-6 0 -8 -1 -6 -3z"/>
<path d="M890 66 c0 -2 7 -7 16 -10 8 -3 12 -2 9 4 -6 10 -25 14 -25 6z"/>
<path d="M1015 60 c-3 -5 -1 -10 4 -10 6 0 11 5 11 10 0 6 -2 10 -4 10 -3 0
-8 -4 -11 -10z"/>
</g>
</svg>
